<svg viewBox="0 0 128 128" xmlns="http://www.w3.org/2000/svg" class="w-full h-full">
  <path d="M114.11 70.76C112.31 44.78 94.44 26.3 64 26.3S15.69 44.78 13.89 70.76c-1.05 15.14 5.05 28.01 17.09 36.21c0 0 12.21 9.88 33.02 10.14c20.81-.26 33.02-10.14 33.02-10.14c12.03-8.2 18.14-21.07 17.09-36.21z" fill="#ffc022"/>
  <path d="M43.34 65.57c-2.88 0-5.22 2.34-5.22 5.22s2.34 5.22 5.22 5.22s5.22-2.34 5.22-5.22s-2.34-5.22-5.22-5.22z" fill="#4d4d4d"/>
  <path d="M84.66 65.57c-2.88 0-5.22 2.34-5.22 5.22s2.34 5.22 5.22 5.22s5.22-2.34 5.22-5.22s-2.34-5.22-5.22-5.22z" fill="#4d4d4d"/>
  <path d="M52.37 83.27c2.91 1.1 5.38 1.63 7.37 1.63s4.46-.53 7.37-1.63c3.78-1.42 5.34-3.5 5.34-3.5l-5.74 3.79c-1.8 1.17-5.32 1.64-7 1.64s-5.2-.47-7-1.64l-5.74-3.79c0 0 1.56 2.08 5.34 3.5z" fill="#4d4d4d"/>
  <path d="M41.38 78.48c-1.39 10.38 0 19.33 0 19.33s2.99 4.88 4.3 0c1.3-4.88 1.3-8.91 0-19.33c-1.31-10.42-4.3-10.38-4.3-10.38s-2.99.04-4.3 10.38z" fill="#66ccee"/>
  <path d="M86.62 78.48c1.39 10.38 0 19.33 0 19.33s-2.99 4.88-4.3 0c-1.3-4.88-1.3-8.91 0-19.33c1.31-10.42 4.3-10.38 4.3-10.38s2.99.04 4.3 10.38z" fill="#66ccee"/>
</svg>